<?xml version="1.0" encoding="UTF-8"?>
<svg version="1.1" xmlns="http://www.w3.org/2000/svg" width="512" height="512">
<path d="M0 0 C1.01790619 0.00215515 2.03581238 0.0043103 3.08456421 0.00653076 C17.69363523 0.05620146 32.02575853 0.30709809 46.375 3.3125 C47.34985352 3.51117676 48.32470703 3.70985352 49.32910156 3.91455078 C97.7109774 14.03517194 141.69928269 35.9516877 177.375 70.3125 C178.3640332 71.26068604 178.3640332 71.26068604 179.37304688 72.22802734 C188.86130305 81.37247479 197.6012044 90.66984009 205.375 101.3125 C206.23306152 102.46355017 207.09113451 103.61459177 207.94921875 104.765625 C213.98736829 112.95680614 219.34595521 121.47054105 224.375 130.3125 C224.73948242 130.94430176 225.10396484 131.57610352 225.47949219 132.22705078 C247.08534998 169.97532572 256.85198095 212.74189997 256.6875 255.9375 C256.68534485 256.95540619 256.6831897 257.97331238 256.68096924 259.02206421 C256.63129854 273.63113523 256.38040191 287.96325853 253.375 302.3125 C253.07698486 303.77478027 253.07698486 303.77478027 252.77294922 305.26660156 C242.65232806 353.6484774 220.7358123 397.63678269 186.375 433.3125 C185.74287598 433.97185547 185.11075195 434.63121094 184.45947266 435.31054688 C175.31502521 444.79880305 166.01765991 453.5387044 155.375 461.3125 C154.22394983 462.17056152 153.07290823 463.02863451 151.921875 463.88671875 C143.73224019 469.92427396 135.22961724 475.30707302 126.375 480.3125 C125.66778809 480.7146875 124.96057617 481.116875 124.23193359 481.53125 C101.09654164 494.5566741 75.92537591 503.30551461 49.9375 508.625 C49.21860596 508.77235596 48.49971191 508.91971191 47.7590332 509.0715332 C33.08339502 511.86090125 18.55831162 512.66142619 3.64770508 512.62817383 C0.70811513 512.6250221 -2.2304558 512.64854926 -5.16992188 512.67382812 C-18.54306192 512.71848737 -31.43916711 511.51301542 -44.625 509.3125 C-46.33055054 509.03031616 -46.33055054 509.03031616 -48.07055664 508.74243164 C-91.33802759 500.97044532 -132.38793216 480.98345309 -165.625 452.3125 C-166.37007813 451.67828125 -167.11515625 451.0440625 -167.8828125 450.390625 C-181.38779833 438.57948485 -194.05918743 425.82889772 -204.625 411.3125 C-205.48149066 410.16255169 -206.33826433 409.01281411 -207.1953125 407.86328125 C-213.23534209 399.67315742 -218.61867614 391.16870382 -223.625 382.3125 C-224.0271875 381.60528809 -224.429375 380.89807617 -224.84375 380.16943359 C-237.8691741 357.03404164 -246.61801461 331.86287591 -251.9375 305.875 C-252.08485596 305.15610596 -252.23221191 304.43721191 -252.3840332 303.6965332 C-255.35789088 288.05024391 -255.99800362 272.57681954 -255.9375 256.6875 C-255.93534485 255.66959381 -255.9331897 254.65168762 -255.93096924 253.60293579 C-255.88129854 238.99386477 -255.63040191 224.66174147 -252.625 210.3125 C-252.42632324 209.33764648 -252.22764648 208.36279297 -252.02294922 207.35839844 C-241.90232806 158.9765226 -219.9858123 114.98821731 -185.625 79.3125 C-184.99287598 78.65314453 -184.36075195 77.99378906 -183.70947266 77.31445312 C-174.56502521 67.82619695 -165.26765991 59.0862956 -154.625 51.3125 C-153.47394983 50.45443848 -152.32290823 49.59636549 -151.171875 48.73828125 C-142.98224019 42.70072604 -134.47961724 37.31792698 -125.625 32.3125 C-124.91778809 31.9103125 -124.21057617 31.508125 -123.48193359 31.09375 C-100.34654164 18.0683259 -75.17537591 9.31948539 -49.1875 4 C-48.46860596 3.85264404 -47.74971191 3.70528809 -47.0090332 3.5534668 C-31.36274391 0.57960912 -15.88931954 -0.06050362 0 0 Z M-108.125 142.875 C-132.92784325 171.40051231 -146.1742599 209.57434902 -143.625 247.3125 C-140.90597014 279.9282702 -128.83443843 308.46822849 -107.625 333.3125 C-106.97789062 334.09496094 -106.33078125 334.87742187 -105.6640625 335.68359375 C-100.18153635 342.13954801 -93.80150274 348.21525869 -86.49990845 352.58399963 C-84.625 354.3125 -84.625 354.3125 -84.11947632 356.84825134 C-84.11662628 357.85988846 -84.11377625 358.87152557 -84.11083984 359.91381836 C-84.0975766 361.06188461 -84.08431335 362.20995087 -84.07064819 363.39280701 C-84.07569366 364.63345413 -84.08073914 365.87410126 -84.0859375 367.15234375 C-84.07414459 368.42598282 -84.06235168 369.69962189 -84.05020142 371.01185608 C-84.02082303 374.39878477 -84.00744643 377.78493846 -84.00335693 381.17193604 C-83.99565362 385.94056541 -83.96731792 390.70896155 -83.92837524 395.47743225 C-83.90869886 398.01597659 -83.89941532 400.55462669 -83.90145874 403.09324646 C-83.89449982 404.24446487 -83.88754089 405.39568329 -83.88037109 406.58178711 C-83.87911224 407.59421982 -83.87785339 408.60665253 -83.8765564 409.64976501 C-83.61780754 412.38863244 -83.08934215 414.00383866 -81.625 416.3125 C-79.22277875 418.11416594 -77.94939747 418.33138777 -74.94140625 418.15625 C-70.67671521 417.07124027 -67.8394788 415.06104411 -64.3125 412.5 C-63.61954834 412.01007568 -62.92659668 411.52015137 -62.21264648 411.01538086 C-60.74825273 409.97864337 -59.28712417 408.93728017 -57.82910156 407.89160156 C-55.69342674 406.3615235 -53.54823418 404.84609221 -51.3984375 403.3359375 C-45.55048424 399.22528204 -39.71380422 395.10036327 -33.9140625 390.921875 C-33.14376709 390.37007568 -32.37347168 389.81827637 -31.57983398 389.24975586 C-30.10172717 388.19055473 -28.62709235 387.12648643 -27.15649414 386.05688477 C-26.15670532 385.34230103 -26.15670532 385.34230103 -25.13671875 384.61328125 C-24.55365967 384.19216064 -23.97060059 383.77104004 -23.36987305 383.3371582 C-19.98333284 381.34844836 -17.18734047 381.2101406 -13.375 381.75 C22.07886693 385.61488375 59.56630698 374.88233912 87.625 352.875 C89.89731494 351.04681223 92.1414156 349.1877185 94.375 347.3125 C95.29410156 346.54808594 96.21320313 345.78367187 97.16015625 344.99609375 C103.33423113 339.66176939 108.38572516 333.74998913 113.375 327.3125 C114.09300781 326.44496094 114.81101562 325.57742188 115.55078125 324.68359375 C130.96561175 305.43559048 139.90636542 281.56519301 143.375 257.3125 C143.57029297 256.05566406 143.57029297 256.05566406 143.76953125 254.7734375 C148.4421912 218.51359627 137.53829533 180.24921731 115.54296875 151.24609375 C90.31710275 119.34395591 55.09714418 99.36371465 14.62280273 94.51318359 C-32.5859486 90.2983912 -75.77133106 108.94736879 -108.125 142.875 Z " fill="#5DAC23" transform="translate(255.625,-0.3125)"/>
<path d="M0 0 C1.93695488 -0.01073296 1.93695488 -0.01073296 3.91304016 -0.02168274 C5.35240149 -0.02452314 6.79176308 -0.02723485 8.23112488 -0.02983093 C9.74053098 -0.03609446 11.24993553 -0.04274116 12.75933838 -0.04974365 C16.86685731 -0.06716317 20.9743646 -0.07770791 25.08191133 -0.08594918 C27.64720694 -0.09109713 30.21249892 -0.09717295 32.77779198 -0.10346031 C40.80124833 -0.12251472 48.82469546 -0.13674554 56.8481701 -0.14507228 C66.11510083 -0.15484782 75.38179289 -0.18117443 84.6486395 -0.22157317 C91.80793647 -0.25171487 98.96716495 -0.26653928 106.12652415 -0.26985329 C110.40412678 -0.27220594 114.68147451 -0.28119399 118.95900917 -0.30631447 C122.98343966 -0.32956647 127.00744691 -0.33384021 131.03192711 -0.32355309 C132.50855796 -0.32305691 133.98520943 -0.32940136 135.46177673 -0.34310913 C137.47859094 -0.36078387 139.4955883 -0.35135101 141.51245117 -0.34057617 C142.64089353 -0.34296453 143.76933588 -0.34535288 144.93197346 -0.34781361 C148.62578134 0.25866843 150.28562973 1.56720402 152.94670105 4.14717102 C154.37332324 7.00041539 154.25703973 8.98171651 153.94670105 12.14717102 C152.14676331 14.84707764 150.86292805 16.68905752 147.94670105 18.14717102 C145.93094751 18.24976323 143.91175018 18.28669076 141.8934021 18.29434204 C139.95644722 18.305075 139.95644722 18.305075 137.98036194 18.31602478 C136.54100061 18.31886518 135.10163902 18.32157689 133.66227722 18.32417297 C132.15287112 18.3304365 130.64346657 18.3370832 129.13406372 18.34408569 C125.02654479 18.36150521 120.9190375 18.37204996 116.81149077 18.38029122 C114.24619516 18.38543918 111.68090318 18.39151499 109.11561012 18.39780235 C101.09215377 18.41685676 93.06870663 18.43108758 85.045232 18.43941432 C75.77830127 18.44918986 66.51160921 18.47551647 57.2447626 18.51591522 C50.08546563 18.54605691 42.92623715 18.56088132 35.76687795 18.56419533 C31.48927532 18.56654798 27.21192759 18.57553603 22.93439293 18.60065651 C18.90996244 18.62390851 14.88595519 18.62818225 10.86147499 18.61789513 C9.38484414 18.61739896 7.90819267 18.6237434 6.43162537 18.63745117 C4.41481116 18.65512591 2.3978138 18.64569305 0.38095093 18.63491821 C-0.74749143 18.63730657 -1.87593378 18.63969492 -3.03857136 18.64215565 C-6.73237924 18.03567361 -8.39222763 16.72713802 -11.05329895 14.14717102 C-12.47992114 11.29392665 -12.36363763 9.31262553 -12.05329895 6.14717102 C-8.43067757 0.71323896 -6.34491042 0.02405268 0 0 Z " fill="#5EAB23" transform="translate(185.0532989501953,259.8528289794922)"/>
<path d="M0 0 C0.76308472 -0.00861557 1.52616943 -0.01723114 2.31237793 -0.02610779 C4.83172651 -0.04878738 7.34996443 -0.04202541 9.86938477 -0.03295898 C11.62289256 -0.03819401 13.37639754 -0.04447004 15.12989807 -0.05174255 C18.80434421 -0.06215062 22.47840319 -0.05758005 26.15283203 -0.04296875 C30.85864734 -0.02578682 35.56324099 -0.04926601 40.26891994 -0.08445835 C43.89012219 -0.10643428 47.51103225 -0.10499035 51.13228035 -0.09669304 C52.86700848 -0.09587349 54.60175806 -0.10273764 56.33642387 -0.11746407 C58.7641053 -0.13491301 61.18959375 -0.12036719 63.6171875 -0.09765625 C64.33163528 -0.10934845 65.04608307 -0.12104065 65.78218079 -0.13308716 C69.67779624 -0.05904966 71.26094442 0.44158732 74.31874084 2.94178772 C76.33974977 5.49113752 77.042997 6.4239113 76.93579102 9.59594727 C76.37329102 13.53344727 76.37329102 13.53344727 74.56079102 15.97094727 C70.53117141 18.84924699 67.05134992 18.66944803 62.22729492 18.69458008 C61.14140831 18.70202744 61.14140831 18.70202744 60.03358459 18.70962524 C57.63899789 18.7242288 55.24447743 18.73104564 52.84985352 18.73657227 C51.18460081 18.74232496 49.51934813 18.74808268 47.85409546 18.75384521 C44.36211844 18.76434989 40.87016442 18.77019612 37.37817383 18.77368164 C32.90693876 18.77916695 28.43600813 18.80319785 23.96486855 18.83165359 C20.52474076 18.8502903 17.08468618 18.85548611 13.64451218 18.85701752 C11.99630442 18.86004197 10.34809789 18.86806353 8.69993973 18.8812027 C6.39241707 18.89828604 4.08563667 18.89637777 1.77807617 18.88989258 C-0.19024673 18.89536102 -0.19024673 18.89536102 -2.19833374 18.90093994 C-5.84837248 18.50968682 -7.71215034 17.71215013 -10.62670898 15.53344727 C-12.72772493 12.85942697 -12.62517874 11.49060042 -12.50170898 8.03344727 C-10.71668642 0.89335702 -6.80694307 -0.06200003 0 0 Z " fill="#5DAB23" transform="translate(185.626708984375,197.466552734375)"/>
</svg>
